<svg width="30" height="30" viewBox="0 0 30 30" fill="none" xmlns="http://www.w3.org/2000/svg">
<path d="M6.55994 13.8399C5.90456 13.8399 5.37327 14.3712 5.37327 15.0266C5.37327 15.682 5.90456 16.2133 6.55994 16.2133V13.8399ZM25.199 15.8657C25.6625 15.4023 25.6625 14.6509 25.199 14.1875L17.6471 6.63561C17.1837 6.17219 16.4324 6.17219 15.9689 6.63561C15.5055 7.09903 15.5055 7.85039 15.9689 8.31381L22.6817 15.0266L15.9689 21.7394C15.5055 22.2028 15.5055 22.9542 15.9689 23.4176C16.4324 23.881 17.1837 23.881 17.6471 23.4176L25.199 15.8657ZM6.55994 16.2133H24.3599V13.8399H6.55994V16.2133Z" fill="white"/>
</svg>
